# xmcd
#
# Track frame offsets: 
#        150
#        13236
#        27477
#        40163
#        54557
#        68092
#        81427
#        95210
#        109341
#        121542
#        133063
#        146087
#        158270
#        170880
#        181254
#        194442
#        207763
#        219684
#        232330
#        243330
#        256375
#        269758
#        283687
#        294946
#        307504
#
# Disc length: 4285 seconds
#
# Revision: 0
# Processed by: cddbd v1.5.1PL0 Copyright (c) Steve Scherf et al.
# Submitted via: ExactAudioCopy v0.95a5
#
DISCID=7c10bb19
DTITLE=Various Artist - Maverick Country CD 4- Home On The Range
DYEAR=2004
DGENRE=Country
TTITLE0=Carl T. Sprague - When the work's all done this fall
TTITLE1=Jules Verne Allen - Little Joe the wrangler
TTITLE2=Harry McClintock - Goodbye old paint
TTITLE3=Ken Maynard - The lone star trail
TTITLE4=Jimmie Rodgers - The cowhand's last ride
TTITLE5=Bill Boyd and His Cowboy Ramblers - Strawberry roan
TTITLE6=Tex Owens - Cattle call
TTITLE7=Patsy Montana - I want to be a cowboy's sweetheart
TTITLE8=Sons Of The Pioneers - Cool water
TTITLE9=Gene Autry - Back in the saddle again
TTITLE10=Hank Snow - The Texax cowboy
TTITLE11=Wilf Carter - Sitting by the old corral
TTITLE12=Al Dexter - Pistol packing mama
TTITLE13=Johnny Bond - The last round up
TTITLE14=Eddie Dean - I've sold my sadle for an old guitar
TTITLE15=Jesse Rogers - Riding down the canyon
TTITLE16=Sons Of The Pioneers - Tumbling tumbleweeds
TTITLE17=Roy Rogers - Don't fence me in
TTITLE18=Texas Ruby - Dim narrow trail
TTITLE19=Jimmy Wakely - There's an empty cot in the bunkhouse
TTITLE20=Rex Allen - The Arizona waltz
TTITLE21=Tennessee Ernie Ford - Mule train
TTITLE22=Tex Ritter - High noon
TTITLE23=Roy Rogers - A four legged Friend
TTITLE24=Slim Whitman - Indian love call
EXTD=
EXTT0=
EXTT1=
EXTT2=
EXTT3=
EXTT4=
EXTT5=
EXTT6=
EXTT7=
EXTT8=
EXTT9=
EXTT10=
EXTT11=
EXTT12=
EXTT13=
EXTT14=
EXTT15=
EXTT16=
EXTT17=
EXTT18=
EXTT19=
EXTT20=
EXTT21=
EXTT22=
EXTT23=
EXTT24=
PLAYORDER=
